<svg
  viewBox="0 0 1440 100"
  fill="currentColor"
  xmlns="http://www.w3.org/2000/svg"
>
  <path
    d="M0 9.99999L40 8.34374C80 6.56249 160 3.43749 240 8.34374C320 13.4375 400 26.5625 480 30C560 33.4375 640 26.5625 720 20C800 13.4375 880 6.56249 960 8.34374C1040 9.99999 1120 20 1200 23.3437C1280 26.5625 1360 23.4375 1400 21.6562L1440 20V100H1400C1360 100 1280 100 1200 100C1120 100 1040 100 960 100C880 100 800 100 720 100C640 100 560 100 480 100C400 100 320 100 240 100C160 100 80 100 40 100H0V9.99999Z"
  />
</svg>
